<?xml version="1.0" standalone="no"?>
<!DOCTYPE svg PUBLIC "-//W3C//DTD SVG 20010904//EN" "http://www.w3.org/TR/2001/REC-SVG-20010904/DTD/svg10.dtd">
<svg version="1.0" xmlns="http://www.w3.org/2000/svg" width="751.000000pt" height="1280.000000pt" viewBox="0 0 751.000000 1280.000000" preserveAspectRatio="xMidYMid meet">
  <g transform="translate(0.000000,1280.000000) scale(0.100000,-0.100000)" fill="#fff" stroke="none">
    <path d="M4189 11929 c-266 -36 -516 -323 -717 -819 -218 -540 -254 -1050
-126 -1805 13 -82 53 -285 88 -449 35 -165 62 -305 59 -312 -2 -7 -66 -68
-141 -135 -194 -175 -630 -612 -751 -754 -586 -685 -861 -1328 -861 -2012 0
-191 18 -336 65 -518 200 -776 862 -1411 1689 -1621 173 -44 343 -65 537 -65
189 -1 206 1 402 33 97 16 131 18 136 9 8 -13 204 -937 222 -1046 17 -106 15
-402 -4 -515 -33 -196 -98 -369 -192 -510 -64 -96 -189 -211 -278 -255 -146
-72 -382 -112 -597 -102 -144 7 -226 25 -325 72 -68 33 -155 106 -155 130 0 9
32 14 103 18 171 8 302 65 421 182 157 154 228 388 182 605 -40 190 -177 367
-346 448 -47 22 -110 46 -140 53 -75 18 -222 16 -299 -5 -209 -54 -388 -225
-454 -431 -19 -59 -22 -92 -21 -215 0 -128 3 -155 28 -234 55 -183 148 -337
289 -483 244 -252 551 -363 919 -333 337 28 595 142 794 353 219 230 325 529
325 917 -1 248 -2 259 -147 925 -57 264 -104 488 -104 497 0 12 24 30 73 54
675 337 1083 1284 871 2022 -34 119 -111 273 -186 373 -78 105 -269 296 -370
372 -294 219 -598 311 -942 285 -60 -5 -113 -5 -117 -1 -4 5 -60 251 -124 548
-64 297 -118 547 -121 555 -2 9 51 85 130 183 584 731 884 1361 997 2097 31
195 33 622 6 800 -108 697 -440 1140 -818 1089z m357 -798 c23 -10 50 -32 62
-48 84 -118 122 -396 88 -650 -35 -267 -123 -533 -277 -843 -108 -218 -170
-310 -316 -473 -126 -140 -396 -392 -420 -392 -15 0 -23 25 -50 150 -123 566
-132 939 -33 1311 71 266 176 474 329 652 197 229 471 359 617 293z m-833
-3593 c17 -68 197 -927 197 -937 0 -7 -15 -17 -32 -23 -83 -28 -273 -135 -368
-207 -281 -211 -473 -490 -562 -816 -18 -68 -21 -108 -22 -260 -1 -159 2 -189
22 -259 93 -321 311 -566 660 -745 118 -60 271 -125 278 -118 2 2 -43 43 -101
92 -189 158 -284 273 -324 391 -47 144 -54 469 -12 626 58 220 169 385 331
493 80 53 200 105 249 108 l34 2 224 -1050 c123 -577 222 -1059 221 -1070 -4
-25 -63 -46 -203 -71 -151 -28 -440 -25 -600 4 -219 41 -451 132 -620 242
-394 258 -678 698 -771 1195 -28 149 -26 472 4 608 46 209 127 398 241 565 72
106 162 207 606 687 188 204 381 414 429 468 49 53 94 97 101 97 7 0 15 -10
18 -22z m830 -1652 c129 -33 226 -75 337 -147 210 -136 362 -345 421 -580 26
-107 36 -307 20 -421 -39 -271 -151 -533 -294 -686 -90 -96 -278 -225 -298
-205 -13 13 -451 2044 -444 2061 8 20 133 10 258 -22z" />
  </g>
</svg>